<?xml version="1.0" encoding="UTF-8" standalone="no"?>
<!-- Created with Inkscape (http://www.inkscape.org/) -->

<svg
   width="100mm"
   height="100mm"
   viewBox="0 0 100 100"
   version="1.1"
   id="svg1"
   xml:space="preserve"
   inkscape:version="1.4.2 (f4327f4, 2025-05-13)"
   sodipodi:docname="logo.svg"
   xmlns:inkscape="http://www.inkscape.org/namespaces/inkscape"
   xmlns:sodipodi="http://sodipodi.sourceforge.net/DTD/sodipodi-0.dtd"
   xmlns="http://www.w3.org/2000/svg"
   xmlns:svg="http://www.w3.org/2000/svg"><sodipodi:namedview
     id="namedview1"
     pagecolor="#505050"
     bordercolor="#eeeeee"
     borderopacity="1"
     inkscape:showpageshadow="0"
     inkscape:pageopacity="0"
     inkscape:pagecheckerboard="0"
     inkscape:deskcolor="#505050"
     inkscape:document-units="mm"
     inkscape:zoom="1.4406056"
     inkscape:cx="367.20667"
     inkscape:cy="224.55833"
     inkscape:window-width="1920"
     inkscape:window-height="1009"
     inkscape:window-x="-8"
     inkscape:window-y="-8"
     inkscape:window-maximized="1"
     inkscape:current-layer="layer2" /><defs
     id="defs1" /><g
     inkscape:groupmode="layer"
     id="layer2"
     inkscape:label="Exportable"><path
       id="path1-1"
       style="baseline-shift:baseline;display:inline;overflow:visible;vector-effect:none;fill:#ffffff;enable-background:accumulate;stop-color:#000000;stop-opacity:1;opacity:1"
       d="M 60.9415 2.9357381 L 21.830192 25.385014 L 21.64054 55.921651 L 35.769393 63.888607 L 49.238338 55.93147 L 49.447111 41.472404 L 74.168083 26.736353 L 74.421814 11.019482 L 60.9415 2.9357381 z M 59.763794 6.3799723 L 59.962748 17.97358 L 35.643302 32.046623 L 25.420154 26.090914 L 59.763794 6.3799723 z M 62.166231 6.4678223 L 70.848389 11.674223 L 62.339347 16.597953 L 62.166231 6.4678223 z M 71.977519 13.79244 L 71.814221 23.924121 L 63.408533 18.75131 L 71.977519 13.79244 z M 61.05002 20.116602 L 70.663904 26.033036 L 48.250285 39.391911 L 38.030754 33.437752 L 61.05002 20.116602 z M 24.211959 28.163656 L 34.443376 34.125049 L 34.495569 47.269983 L 24.05693 53.161096 L 24.211959 28.163656 z M 36.84943 35.527547 L 47.046741 41.469303 L 46.877759 53.159546 L 36.896456 47.282385 L 36.84943 35.527547 z M 34.506938 50.019169 L 34.548279 60.444373 L 25.287862 55.224019 L 34.506938 50.019169 z M 36.907308 50.072913 L 45.6861 55.24314 L 36.948649 60.404582 L 36.907308 50.072913 z " /><path
       id="path6-6"
       style="baseline-shift:baseline;display:inline;overflow:visible;vector-effect:none;fill:#ffffff;enable-background:accumulate;stop-color:#000000;stop-opacity:1;opacity:1"
       d="M 68.277486 36.671663 L 54.831795 44.515629 L 54.750146 59.361235 L 29.175997 73.454948 L 29.353764 89.459139 L 42.865084 97.691195 L 81.646696 75.05485 L 81.77537 44.474805 L 68.277486 36.671663 z M 69.471212 40.134501 L 79.369316 45.857666 L 79.319189 57.693636 L 69.419535 51.993209 L 69.471212 40.134501 z M 67.070841 40.154655 L 67.019682 51.75033 L 57.158785 57.901375 L 57.224414 45.89849 L 67.070841 40.154655 z M 67.007279 54.588399 L 66.960771 65.107137 L 58.269312 60.037162 L 67.007279 54.588399 z M 69.407133 54.755831 L 78.113062 59.768962 L 69.362691 64.850305 L 69.407133 54.755831 z M 79.301619 61.854622 L 79.257694 72.280343 L 70.323356 67.068258 L 79.301619 61.854622 z M 54.71759 62.119722 L 54.568762 72.345972 L 45.602384 67.143188 L 54.71759 62.119722 z M 57.11641 62.141943 L 65.552071 67.06309 L 56.97275 72.045732 L 57.11641 62.141943 z M 66.943717 69.030929 L 66.897725 79.500057 L 57.903442 74.280737 L 66.943717 69.030929 z M 41.966947 69.146684 L 41.978833 80.75321 L 31.722611 86.708919 L 31.589803 74.865198 L 41.966947 69.146684 z M 44.367318 69.201978 L 53.122339 74.282288 L 44.377136 79.360014 L 44.367318 69.201978 z M 69.343571 69.274841 L 78.06862 74.36497 L 69.298612 79.483521 L 69.343571 69.274841 z M 54.511918 76.250643 L 54.358439 86.759562 L 45.539339 81.461178 L 54.511918 76.250643 z M 56.908154 76.479053 L 65.702966 81.5821 L 56.758293 86.80297 L 56.908154 76.479053 z M 43.169458 82.837321 L 53.214323 88.871578 L 42.892472 94.896533 L 32.893083 88.804915 L 43.169458 82.837321 z " /></g></svg>
